<svg xmlns="http://www.w3.org/2000/svg" width="4213.29" height="657.22"><style>.st1{fill:none;stroke:#000;stroke-linecap:round;stroke-linejoin:round;stroke-miterlimit:10}</style><g id="Layer_2"><linearGradient id="SVGID_1_" gradientUnits="userSpaceOnUse" x1="123.37" y1="543.28" x2="518.17" y2="148.48"><stop offset="0" stop-color="#b7b7b6"/><stop offset=".05" stop-color="#c5c5c5"/><stop offset=".14" stop-color="#ebebeb"/><stop offset=".18" stop-color="#fff"/><stop offset=".24" stop-color="#dedede"/><stop offset=".29" stop-color="#c5c5c4"/><stop offset=".33" stop-color="#bcbcbb"/><stop offset=".44" stop-color="#e4e4e4"/><stop offset=".51" stop-color="#fff"/><stop offset=".53" stop-color="#f1f1f1"/><stop offset=".6" stop-color="#d2d2d1"/><stop offset=".65" stop-color="#bfbfbe"/><stop offset=".68" stop-color="#b8b8b7"/><stop offset=".73" stop-color="#cfcfce"/><stop offset=".81" stop-color="#f2f2f1"/><stop offset=".85" stop-color="#fff"/><stop offset=".87" stop-color="#f9f9f9"/><stop offset=".9" stop-color="#e8e8e8"/><stop offset=".94" stop-color="#cdcdcd"/><stop offset=".98" stop-color="#a7a7a7"/><stop offset="1" stop-color="#8c8c8c"/></linearGradient><path d="M507.43 573c0 2.74-2.1 4.08-3.63 4.7-.85.33-1.52.44-1.52.44-3 .14-6 .3-9 .43-9.58.05-24.1.14-41.79.22-96.86.46-89 .05-108 .43-58.52 1.2-61.94 3.65-88.92 1.07-34.28-3.28-57.59-10-65.57-12.44a308.69 308.69 0 01-61.29-26.14s-56.57-31.28-82.28-111c-25.72-79.7-13.72-147.43-13.72-147.43 5.57-64.7 35.57-96.43 35.57-96.43s12-24 62.57-51.85c50.58-27.86 123.86-27 123.86-27h45.43l166.3-2.15 7.91-.1c7.61 1.76 7.08 9.53 7.08 9.53l3.42 63c2.13 7.17-2.33 9.41-6.03 10.07 0 0 0 0 0 0l-4.25.22H270.85c-140.57-8.14-144 101.57-144 101.57S120 300.85 132 395.57c12 94.71 110.57 103.28 110.57 103.28l25.6 2.15s220.4-3.86 228.97-3.86c3.3 0 5.2.63 6.28 1.41 1.76 1.25 1.43 2.88 1.43 2.88s2.58 67.28 2.58 71.57z" fill="url(#SVGID_1_)" stroke="#000" stroke-linecap="round" stroke-linejoin="round" stroke-miterlimit="10"/><path class="st1" d="M504.43 183.85s0 3.43-3.43 3.43c-2.52 0-16.12.7-23.18 1.07 3.7-.66 8.16-2.9 6.03-10.07l-3.42-63s.53-7.77-7.08-9.54l24.22-.35s3.45 0 3.45 3.44c0 3.45 3.41 75.02 3.41 75.02zM522.21 491.14l-18.79 7.41c-1.09-.78-2.99-1.4-6.28-1.4-8.57 0-228.97 3.85-228.97 3.85l-25.6-2.15S144 490.28 132 395.57c-12-94.72-5.15-105.43-5.15-105.43s3.43-109.7 144-101.57c0 0-77.78 2.36-106.07 54.64-28.28 52.3-9.64 148.5-9.64 148.5s10.4 58.72 61.71 83.57c51.32 24.86 163.72 17.15 163.72 17.15l141.64-1.29zM507.43 573c0-4.29-2.58-71.57-2.58-71.57s.33-1.63-1.43-2.88l18.8-7.4 3 80.13-21.42 6.41c1.52-.6 3.63-1.95 3.63-4.69z"/></g><g id="Layer_3"><linearGradient id="SVGID_2_" gradientUnits="userSpaceOnUse" x1="550.78" y1="578" x2="976.09" y2="152.69"><stop offset="0" stop-color="#b7b7b6"/><stop offset=".04" stop-color="#c6c6c5"/><stop offset=".1" stop-color="#ececeb"/><stop offset=".1" stop-color="#ededec"/><stop offset=".19" stop-color="#d7d7d6"/><stop offset=".28" stop-color="#bcbcbb"/><stop offset=".42" stop-color="#e4e4e4"/><stop offset=".51" stop-color="#fff"/><stop offset=".53" stop-color="#f1f1f0"/><stop offset=".62" stop-color="#cbcbca"/><stop offset=".66" stop-color="#bcbcbb"/><stop offset=".68" stop-color="#c5c5c5"/><stop offset=".78" stop-color="#ededed"/><stop offset=".83" stop-color="#fcfcfc"/><stop offset=".84" stop-color="#fafafa"/><stop offset="1" stop-color="#ededed"/><stop offset="1" stop-color="#ddd"/><stop offset="1" stop-color="#a3a3a3"/><stop offset="1" stop-color="#8c8c8c"/></linearGradient><path d="M1035.01 579.33c-.45.41-1.26.67-2.58.67H933L807.21 407l-3.2-4.43s.84-4.72-11.16-4.72l-141 2.58s-10.5 1.28-10.5 10.5c0 9.21 5.36 165.21 5.36 165.21s-.16 1.4-1.58 2.51l-4.85 1.35c-6 0-84 1.7-84 1.7s-4.49-.44-4.49-4.5-5.36-196.06-5.36-196.06-.62-41.53 40.11-54.22l.06-.02c7.33-2.28 16-3.62 26.25-3.62h222.43s25.56 1.43 49.02-9.15a71.6 71.6 0 004.06-1.95h.01c17.6-9.14 33.05-25.68 34.13-55.54 2.57-71.36-87.22-67.5-87.22-67.5H540.85s-5.14.86-5.14-5.14-1.7-74.26-1.7-74.26.42-3.3 8.13-3.3h280.29s.06-.02.18-.02c5.42-.34 134.54-7.4 181.53 82.76 0 0 33 59.1 0 127.67 0 0-30.43 61.72-93.43 71.15-3.25 0-5.99 1.5-6.77 3.75-.79 2.25.64 4.51 1.52 5.9a12.04 12.04 0 005.25 4.5l121.72 171s4.46 4.45 2.58 6.18z" fill="url(#SVGID_2_)" stroke="#000" stroke-linecap="round" stroke-linejoin="round" stroke-miterlimit="10"/><path class="st1" d="M659.25 421.53s4.82 141.43 4.82 145.93-4.18 7.07-4.18 7.07l-14.76 4.12c1.42-1.12 1.58-2.5 1.58-2.5s-5.36-156-5.36-165.22c0-9.22 10.5-10.5 10.5-10.5l141-2.58c12 0 11.15 4.72 11.15 4.72l3.21 4.42-138.64 1.7c-9.97 2.88-9.32 12.84-9.32 12.84zM884.3 314.13c-23.46 10.58-49.02 9.15-49.02 9.15H612.85c-10.25 0-18.92 1.34-26.25 3.62 1.3-.54 24.91-10.15 63.65-10.15h168.43s49.86 1.98 65.62-2.62z"/><path class="st1" d="M1046.25 575.82a118.12 118.12 0 01-11.24 3.51c1.88-1.73-2.58-6.19-2.58-6.19l-121.72-171c-5.75-1.75-8.18-7.11-6.77-10.39.96-2.2 3.72-3.6 6.77-3.75 63-9.43 93.43-71.15 93.43-71.15 33-68.57 0-127.67 0-127.67-46.99-90.16-176.1-83.1-181.53-82.76 5.35-.53 128.7-11.78 180.9 60.22 53.34 73.61 14.77 153.88 14.77 153.88s-33.55 57.3-91.18 68.87c0 0-8.78 4.5 2.8 16.07s84.85 117.64 84.85 117.64l31.5 44.68s4.82 6.11 0 8.04z"/></g><g id="Layer_4"><linearGradient id="SVGID_3_" gradientUnits="userSpaceOnUse" x1="1080.09" y1="425.59" x2="1467.44" y2="38.24"><stop offset="0" stop-color="#b7b7b6"/><stop offset=".04" stop-color="#c6c6c5"/><stop offset=".1" stop-color="#ececeb"/><stop offset=".1" stop-color="#ededec"/><stop offset=".19" stop-color="#d7d7d6"/><stop offset=".28" stop-color="#bcbcbb"/><stop offset=".42" stop-color="#e4e4e4"/><stop offset=".51" stop-color="#fff"/><stop offset=".53" stop-color="#f1f1f0"/><stop offset=".62" stop-color="#cbcbca"/><stop offset=".66" stop-color="#bcbcbb"/><stop offset=".68" stop-color="#c5c5c5"/><stop offset=".78" stop-color="#ededed"/><stop offset=".83" stop-color="#fcfcfc"/><stop offset=".84" stop-color="#fafafa"/><stop offset="1" stop-color="#ededed"/><stop offset="1" stop-color="#ddd"/><stop offset="1" stop-color="#a3a3a3"/><stop offset="1" stop-color="#8c8c8c"/></linearGradient><path d="M1536.85 116.57c-4.28 7.71-205.7 253.28-205.7 253.28s-7.3 5.15-7.3 12.86c0 7.72 3 190.3 3 190.3s-.42 5.34-5.35 5.34-85.07 2.36-85.07 2.36-4.29-.43-4.29-6.43-3.43-189-3.43-189 3.64-2.78-6.43-12.85C1212.21 362.35 1001.14 114 1001.14 114s-4.7-5.84 2.57-5.84h105.86s4.71.7 8.14 4.12c3.43 3.43 147 189.43 147 189.43s11.57 11.14 18.86 0c7.28-11.14 143.57-190.28 143.57-190.28s2.14-3.27 10.3-3.27h99.41s4.3.7 0 8.41z" fill="url(#SVGID_3_)" stroke="#000" stroke-linecap="round" stroke-linejoin="round" stroke-miterlimit="10"/><path class="st1" d="M1283.57 301.71c-7.29 11.14-18.86 0-18.86 0s-143.57-186-147-189.43c-3.43-3.43-8.14-4.12-8.14-4.12h12s1.28-.59 5.14 3.27c3.86 3.85 146.14 186.85 146.14 186.85s1.72 3.43 10.72 3.43zM1331.14 369.85l2.15 200.58s-.43 7.92-11.79 7.92"/></g><g id="Layer_5"><linearGradient id="SVGID_4_" gradientUnits="userSpaceOnUse" x1="1566.8" y1="564.48" x2="2022.85" y2="108.43"><stop offset="0" stop-color="#b7b7b6"/><stop offset=".04" stop-color="#c6c6c5"/><stop offset=".1" stop-color="#ececeb"/><stop offset=".1" stop-color="#ededec"/><stop offset=".19" stop-color="#d7d7d6"/><stop offset=".28" stop-color="#bcbcbb"/><stop offset=".42" stop-color="#e4e4e4"/><stop offset=".51" stop-color="#fff"/><stop offset=".53" stop-color="#f1f1f0"/><stop offset=".62" stop-color="#cbcbca"/><stop offset=".66" stop-color="#bcbcbb"/><stop offset=".68" stop-color="#c5c5c5"/><stop offset=".78" stop-color="#ededed"/><stop offset=".83" stop-color="#fcfcfc"/><stop offset=".84" stop-color="#fafafa"/><stop offset="1" stop-color="#ededed"/><stop offset="1" stop-color="#ddd"/><stop offset="1" stop-color="#a3a3a3"/><stop offset="1" stop-color="#8c8c8c"/></linearGradient><path d="M2004 533s-30.86 47.57-116.15 47.57h-302.57s-4.93.43-4.93-4.93v-71.79l.01-.1c.1-.64.77-3.86 3.96-3.86h290.25s78.43-4.6 57.43-76.18c0 0-9.9-38.94-89.57-37.28-79.66 1.66-153-.43-153-.43s-63.43-2.57-109.08-42.64c0 0-44.83-34.08-41.59-97.5 3.24-63.43 27.67-87.86 27.67-87.86s41.57-47.84 98.57-47.84l352.71-4.02s7.3.86 7.3 7.3v72.41s-.44 5.15-7.3 5.15h-326.57s-54.86 3.43-54.86 54.85c0 51.43 44.15 57.43 44.15 57.43s.42 5.15 86.14 5.15c85.71 0 123.43 2.57 123.43 2.57s111.85 6 135 86.57c23.14 80.57-21 135.43-21 135.43z" fill="url(#SVGID_4_)" stroke="#000" stroke-linecap="round" stroke-linejoin="round" stroke-miterlimit="10"/><path class="st1" d="M1874.57 499.9h-290.25c-3.19 0-3.86 3.21-3.96 3.84.08-1.12 1.02-10.07 10.17-10.07h292.18s60.44-7.39 49.3-69.96c21 71.57-57.44 76.18-57.44 76.18zM2025 397.57C2001.85 317 1890 311 1890 311s-37.72-2.57-123.43-2.57c-85.72 0-86.14-5.15-86.14-5.15s-44.15-6-44.15-57.43c0 0 2.57 57 66.43 57h125.57S1998 293.43 2025 397.57z"/></g><g id="Layer_6"><linearGradient id="SVGID_5_" gradientUnits="userSpaceOnUse" x1="2096.85" y1="443.9" x2="2468.22" y2="72.54"><stop offset="0" stop-color="#b7b7b6"/><stop offset=".04" stop-color="#c6c6c5"/><stop offset=".1" stop-color="#ececeb"/><stop offset=".1" stop-color="#ededec"/><stop offset=".19" stop-color="#d7d7d6"/><stop offset=".28" stop-color="#bcbcbb"/><stop offset=".42" stop-color="#e4e4e4"/><stop offset=".51" stop-color="#fff"/><stop offset=".53" stop-color="#f1f1f0"/><stop offset=".62" stop-color="#cbcbca"/><stop offset=".66" stop-color="#bcbcbb"/><stop offset=".68" stop-color="#c5c5c5"/><stop offset=".78" stop-color="#ededed"/><stop offset=".83" stop-color="#fcfcfc"/><stop offset=".84" stop-color="#fafafa"/><stop offset="1" stop-color="#ededed"/><stop offset="1" stop-color="#ddd"/><stop offset="1" stop-color="#a3a3a3"/><stop offset="1" stop-color="#8c8c8c"/></linearGradient><path d="M2497.5 102.82v80.03s-.32 1.93-1.93 1.93c-1.6 0-158.79 2.9-158.79 2.9s-4.34.64-4.34 4.33c0 3.7-4.66 382.34-4.66 382.34s-.32 4.34-4.34 4.34c-4 0-88.23 1.9-88.23 1.9l-.15-.03c-.78-.12-4.35-.9-4.35-4.92 0-4.5 3.22-383.63 3.22-383.63s0-6.26-9.97-6.26l-6.6.06c-29.48.31-139.65 1.87-139.65 1.87s-5.94 0-5.94-5.95v-74.09s.32-4.42 4.41-4.42c4.1 0 418.1-3.62 418.1-3.62s3.22.97 3.22 3.22z" fill="url(#SVGID_5_)" stroke="#000" stroke-linecap="round" stroke-linejoin="round" stroke-miterlimit="10"/><path class="st1" d="M2077.71 187.68h-8.36s-4.34-.32-4.34-4.34v-76.02s.5-4.18 4.67-4.18 6.5.08 6.5.08c-4.09 0-4.4 4.42-4.4 4.42v74.1c0 5.94 5.93 5.94 5.93 5.94zM2235.06 580.56c-1.48-.19-13.35-1.87-13.35-7.49 0-5.99 3.54-378.32 3.54-378.32s-.29-8.22-7.9-8.94l6.61-.06c9.97 0 9.97 6.26 9.97 6.26s-3.22 379.13-3.22 383.63c0 4.01 3.57 4.8 4.35 4.92z"/></g><g id="Layer_7"><linearGradient id="SVGID_6_" gradientUnits="userSpaceOnUse" x1="2493.86" y1="670.18" x2="2933.04" y2="231"><stop offset="0" stop-color="#b7b7b6"/><stop offset=".04" stop-color="#c6c6c5"/><stop offset=".1" stop-color="#ececeb"/><stop offset=".1" stop-color="#ededec"/><stop offset=".19" stop-color="#d7d7d6"/><stop offset=".28" stop-color="#bcbcbb"/><stop offset=".42" stop-color="#e4e4e4"/><stop offset=".51" stop-color="#fff"/><stop offset=".53" stop-color="#f1f1f0"/><stop offset=".62" stop-color="#cbcbca"/><stop offset=".66" stop-color="#bcbcbb"/><stop offset=".68" stop-color="#c5c5c5"/><stop offset=".78" stop-color="#ededed"/><stop offset=".83" stop-color="#fcfcfc"/><stop offset=".84" stop-color="#fafafa"/><stop offset="1" stop-color="#ededed"/><stop offset="1" stop-color="#ddd"/><stop offset="1" stop-color="#a3a3a3"/><stop offset="1" stop-color="#8c8c8c"/></linearGradient><path d="M3008.9 574.21s-164.26-407.57-171-425.25-17.69-30.2-17.69-30.2-21.53-33.44-105.1-33.44c-2.96 0-5.84.07-8.65.2l-.18.01c-6.68.32-12.95 1-18.83 1.96-61.44 10.11-80.35 52.15-80.35 52.15s-213.42 421.07-215.35 425.57c-1.93 4.5 4.18 4.18 4.18 4.18h97.4c3.2 0 4.17-1.6 4.17-1.6s61.82-121.8 68.42-134.04l.02-.03.34-.62c4.18-7.39 13.5 0 13.5 0s113.47 144.97 117.65 149.15a5.6 5.6 0 004.01 1.86c2.48 0 4.34-1.86 4.34-1.86s94.18-106.58 118.12-134.76c2.48-2.92 4.2-5 5-6.03 8.35-10.93 17.35 0 17.35 0s51.1 125.68 53.35 131.14c2.25 5.47 5.47 6.43 5.47 6.43h99c7.71 0 4.82-4.82 4.82-4.82zm-174.87-161.68c-1.93 1.93-.64 1.93-5.78 1.93h-41.47s-3.53-.64-8.84-8.84c-5.3-8.19-63.8-94.66-63.8-94.66s-2.53-2.37-4.9 0c-2.37 2.37-74.8 98.36-74.8 98.36s-.34 3.21-3.23 3.21h-40.18l-5.62-5.62c-4.34-4.34 2.1-15.59 2.1-15.59l107.02-211.18.05-.1.05-.09a.97.97 0 01.11-.18c.88-1.53 4.67-7.34 11.36-7.34 0 0 10.93-2.58 22.18 0 11.25 2.57 14.8 10.92 14.8 10.92l89.02 221.47s3.86 5.78 1.93 7.71z" fill="url(#SVGID_6_)" stroke="#000" stroke-linecap="round" stroke-linejoin="round" stroke-miterlimit="10"/><path class="st1" d="M2834.03 412.53c-1.93 1.93-.64 1.93-5.78 1.93h-23.47c10.45 0 6.43-8.36 6.43-8.36s-77.14-205.23-81.64-216.48-7.88-11.49-7.88-11.49-2.89-2-14.3-2c-9.27 0-11.97 2.64-12.65 3.64.88-1.53 4.67-7.34 11.36-7.34 0 0 10.93-2.58 22.18 0 11.25 2.57 14.8 10.92 14.8 10.92l89.02 221.47s3.86 5.78 1.93 7.71zM2714.14 310.96s-2.53-2.37-4.9 0c-2.37 2.37-74.8 98.36-74.8 98.36s-.34 3.21-3.23 3.21h-18.64c3.43 0 6.86-4.18 6.86-4.18s71.51-94.76 74.14-97.39c2.62-2.63 9.64-1.82 9.64-1.82 12.64 0 10.93 1.82 10.93 1.82zM2905.07 579.03s-9.97-.64-12.7-1.6c-2.73-.97-11.57-3.86-11.57-3.86s-3.2-1.29-6.43-9.64c-3.2-8.36-45-114.43-45-114.43s-1.95-4.02-5.47-2c2.48-2.93 4.2-5 5-6.04 8.35-10.93 17.35 0 17.35 0s51.1 125.68 53.35 131.14c2.25 5.47 5.47 6.43 5.47 6.43zM2701.44 584.11h-10.93s-3.2-.58-6.9-4.27c-3.7-3.7-113.3-146.09-113.3-146.09s-2.99-2.57-4.37-.03l.34-.62c4.18-7.39 13.5 0 13.5 0s113.47 144.97 117.65 149.15a5.6 5.6 0 004.01 1.86zM2687.45 87.5c-61.44 10.1-80.35 52.14-80.35 52.14s-213.42 421.07-215.35 425.57c-1.93 4.5 4.18 4.18 4.18 4.18s-1.72 1.4-7.5-1.82c-5.79-3.22-7.5-4.93-7.5-4.93s-2.58-.43 0-5.14c2.57-4.72 214.5-421.93 214.5-421.93s12.85-22.29 37.28-34.5c14.61-7.3 38.16-11.44 54.74-13.58z"/></g><g id="Layer_8"><g id="XMLID_1_"><linearGradient id="SVGID_7_" gradientUnits="userSpaceOnUse" x1="3216.51" y1="374.04" x2="3526.57" y2="63.98"><stop offset="0" stop-color="#b7b7b6"/><stop offset=".04" stop-color="#c6c6c5"/><stop offset=".1" stop-color="#ececeb"/><stop offset=".1" stop-color="#ededec"/><stop offset=".23" stop-color="#d7d7d6"/><stop offset=".37" stop-color="#bcbcbb"/><stop offset=".43" stop-color="#e4e4e4"/><stop offset=".47" stop-color="#fff"/><stop offset=".51" stop-color="#f1f1f0"/><stop offset=".61" stop-color="#cbcbca"/><stop offset=".66" stop-color="#bcbcbb"/><stop offset=".68" stop-color="#c5c5c5"/><stop offset=".78" stop-color="#ededed"/><stop offset=".83" stop-color="#fcfcfc"/><stop offset=".84" stop-color="#fafafa"/><stop offset="1" stop-color="#ededed"/><stop offset="1" stop-color="#ddd"/><stop offset="1" stop-color="#a3a3a3"/><stop offset="1" stop-color="#8c8c8c"/></linearGradient><path d="M3468 572.43s0 2.78-2.79 2.78c-2.78 0-260.78 6.22-260.78 6.22s-37.46 1.42-84.07-17.86a246.24 246.24 0 01-13.65-6.14c-52.7-25.72-68.57-80.58-68.57-80.58s-5.14-15.42-6.86-38.14c-1.7-22.7-1.7-324.86-1.7-324.86s-1.3-7.7 7.7-7.7 84-1.72 84-1.72 7.3-1.29 7.3 7.28 3.42 322.72 3.42 322.72 2.14 27.42 17.57 37.71l.01.02.04.04c.45.41 3.88 3.6 9.4 7.6l.05.04c10.6 7.71 28.87 18.44 48.36 18.44 30.42 0 252.85-5.57 252.85-5.57s5.57.43 5.57 5.57c0 5.15 2.15 74.15 2.15 74.15z" fill="url(#SVGID_7_)"/><g><path class="st1" d="M3468 572.43s0 2.78-2.79 2.78c-2.78 0-260.78 6.22-260.78 6.22s-37.46 1.42-84.07-17.86a246.24 246.24 0 01-13.65-6.14c-52.7-25.72-68.57-80.58-68.57-80.58s-5.14-15.42-6.86-38.14c-1.7-22.7-1.7-324.86-1.7-324.86s-1.3-7.7 7.7-7.7 84-1.72 84-1.72 7.3-1.29 7.3 7.28 3.42 322.72 3.42 322.72 2.14 27.42 17.57 37.71l.01.02.04.04c.45.41 3.88 3.6 9.4 7.6l.05.04c10.6 7.71 28.87 18.44 48.36 18.44 30.42 0 252.85-5.57 252.85-5.57s5.57.43 5.57 5.57c0 5.15 2.15 74.15 2.15 74.15z"/></g></g><path class="st1" d="M3120.36 563.57s-41.5-15.14-75.79-42.57c-34.29-27.43-35.15-80.15-35.15-80.15V114.72c0-8.14 8.58-8.58 8.58-8.58h19.28c-9 0-7.7 7.71-7.7 7.71s0 302.15 1.7 324.86c1.72 22.72 6.86 38.14 6.86 38.14s15.86 54.86 68.57 80.58c4.62 2.25 9.18 4.3 13.65 6.14zM3465.85 498.28c0-5.14-5.57-5.57-5.57-5.57s-222.43 5.57-252.85 5.57c-19.49 0-37.76-10.73-48.36-18.44 11.11 6.85 33.23 15.65 72.78 14.6 63.86-1.73 219-6.44 219-6.44h6.86s8.14.42 8.14 10.28zM3159.07 479.84l-.05-.04c-6.25-3.87-9-7.1-9.4-7.6l-.04-.04v-.02"/></g><g id="Layer_9"><linearGradient id="SVGID_8_" gradientUnits="userSpaceOnUse" x1="3477.09" y1="446.98" x2="3818.74" y2="446.98"><stop offset="0" stop-color="#b7b7b6"/><stop offset=".05" stop-color="#c5c5c5"/><stop offset=".14" stop-color="#ebebeb"/><stop offset=".18" stop-color="#fff"/><stop offset=".24" stop-color="#dedede"/><stop offset=".29" stop-color="#c5c5c4"/><stop offset=".33" stop-color="#bcbcbb"/><stop offset=".44" stop-color="#e4e4e4"/><stop offset=".51" stop-color="#fff"/><stop offset=".53" stop-color="#f1f1f1"/><stop offset=".6" stop-color="#d2d2d1"/><stop offset=".65" stop-color="#bfbfbe"/><stop offset=".68" stop-color="#b8b8b7"/><stop offset=".73" stop-color="#cfcfce"/><stop offset=".81" stop-color="#f2f2f1"/><stop offset=".85" stop-color="#fff"/><stop offset=".87" stop-color="#f9f9f9"/><stop offset=".9" stop-color="#e8e8e8"/><stop offset=".94" stop-color="#cdcdcd"/><stop offset=".98" stop-color="#a7a7a7"/><stop offset="1" stop-color="#8c8c8c"/></linearGradient><path d="M3661.08 271.14s-2.3-4.52-4.53-4.52c-2.22 0-178-3.03-178-3.03s-3.29 2.96 0 6.24 329.54 358.79 329.54 358.79 1.97 1.64 5.59 1.64c3.61 0 5.91 1.31 4.76-4.76-1.15-6.08-4.1-52.08-4.1-52.08s1.3-2.96-2.63-11.5c-3.95-8.54-150.63-290.77-150.63-290.77z" fill="url(#SVGID_8_)" stroke="#000" stroke-width=".26" stroke-linecap="round" stroke-linejoin="round" stroke-miterlimit="10"/><linearGradient id="SVGID_9_" gradientUnits="userSpaceOnUse" x1="3845.88" y1="446.98" x2="4187.53" y2="446.98"><stop offset="0" stop-color="#b7b7b6"/><stop offset=".05" stop-color="#c5c5c5"/><stop offset=".14" stop-color="#ebebeb"/><stop offset=".18" stop-color="#fff"/><stop offset=".24" stop-color="#dedede"/><stop offset=".29" stop-color="#c5c5c4"/><stop offset=".33" stop-color="#bcbcbb"/><stop offset=".44" stop-color="#e4e4e4"/><stop offset=".51" stop-color="#fff"/><stop offset=".53" stop-color="#f1f1f1"/><stop offset=".6" stop-color="#d2d2d1"/><stop offset=".65" stop-color="#bfbfbe"/><stop offset=".68" stop-color="#b8b8b7"/><stop offset=".73" stop-color="#cfcfce"/><stop offset=".81" stop-color="#f2f2f1"/><stop offset=".85" stop-color="#fff"/><stop offset=".87" stop-color="#f9f9f9"/><stop offset=".9" stop-color="#e8e8e8"/><stop offset=".94" stop-color="#cdcdcd"/><stop offset=".98" stop-color="#a7a7a7"/><stop offset="1" stop-color="#8c8c8c"/></linearGradient><path d="M4003.54 271.14s2.3-4.52 4.53-4.52c2.22 0 178-3.03 178-3.03s3.29 2.96 0 6.24-329.54 358.79-329.54 358.79-1.97 1.64-5.59 1.64c-3.61 0-5.91 1.31-4.76-4.76 1.15-6.08 4.1-52.08 4.1-52.08s-1.3-2.96 2.63-11.5c3.95-8.54 150.63-290.77 150.63-290.77z" fill="url(#SVGID_9_)" stroke="#000" stroke-width=".26" stroke-linecap="round" stroke-linejoin="round" stroke-miterlimit="10"/><linearGradient id="SVGID_10_" gradientUnits="userSpaceOnUse" x1="3671.08" y1="303.23" x2="3993.54" y2="303.23"><stop offset="0" stop-color="#b7b7b6"/><stop offset=".05" stop-color="#c5c5c5"/><stop offset=".14" stop-color="#ebebeb"/><stop offset=".18" stop-color="#fff"/><stop offset=".24" stop-color="#dedede"/><stop offset=".29" stop-color="#c5c5c4"/><stop offset=".33" stop-color="#bcbcbb"/><stop offset=".44" stop-color="#e4e4e4"/><stop offset=".51" stop-color="#fff"/><stop offset=".53" stop-color="#f1f1f1"/><stop offset=".6" stop-color="#d2d2d1"/><stop offset=".65" stop-color="#bfbfbe"/><stop offset=".68" stop-color="#b8b8b7"/><stop offset=".73" stop-color="#cfcfce"/><stop offset=".81" stop-color="#f2f2f1"/><stop offset=".85" stop-color="#fff"/><stop offset=".87" stop-color="#f9f9f9"/><stop offset=".9" stop-color="#e8e8e8"/><stop offset=".94" stop-color="#cdcdcd"/><stop offset=".98" stop-color="#a7a7a7"/><stop offset="1" stop-color="#8c8c8c"/></linearGradient><path d="M3827.14 43.45s3.62-2.62 6.25 0c2.62 2.63 158.69 201.41 158.69 201.41s3.29 7.88 0 14.13c-3.29 6.24-156.87 304.24-156.87 304.24s-1.66 2.14-3.8 0c-2.13-2.13-159.67-307.53-159.67-307.53s-1.48-3.12 0-4.6c1.47-1.48 155.4-207.65 155.4-207.65z" fill="url(#SVGID_10_)" stroke="#000" stroke-width=".26" stroke-linecap="round" stroke-linejoin="round" stroke-miterlimit="10"/></g></svg>